<mxfile host="app.diagrams.net" modified="2023-09-23T03:14:39.846Z" agent="Mozilla/5.0 (Windows NT 10.0; Win64; x64) AppleWebKit/537.36 (KHTML, like Gecko) Chrome/116.0.0.0 Safari/537.36" etag="qhDgWs0ZaQppfTrV1qt9" version="21.8.1" type="device">
  <diagram name="Página-1" id="z-JBHXHgfFMKVlA43Gau">
    <mxGraphModel dx="794" dy="456" grid="1" gridSize="10" guides="1" tooltips="1" connect="1" arrows="1" fold="1" page="1" pageScale="1" pageWidth="827" pageHeight="1169" math="0" shadow="0">
      <root>
        <mxCell id="0" />
        <mxCell id="1" parent="0" />
        <mxCell id="5UNZaeu38mxoltJObdmS-1" value="" style="rounded=0;whiteSpace=wrap;html=1;" vertex="1" parent="1">
          <mxGeometry x="270" y="560" width="330" height="440" as="geometry" />
        </mxCell>
        <mxCell id="5UNZaeu38mxoltJObdmS-2" style="edgeStyle=orthogonalEdgeStyle;rounded=0;orthogonalLoop=1;jettySize=auto;html=1;exitX=1;exitY=0.3333333333333333;exitDx=0;exitDy=0;exitPerimeter=0;entryX=0;entryY=0.5;entryDx=0;entryDy=0;" edge="1" parent="1" source="5UNZaeu38mxoltJObdmS-17" target="5UNZaeu38mxoltJObdmS-11">
          <mxGeometry relative="1" as="geometry">
            <Array as="points">
              <mxPoint x="180" y="730" />
              <mxPoint x="180" y="650" />
            </Array>
          </mxGeometry>
        </mxCell>
        <mxCell id="5UNZaeu38mxoltJObdmS-6" value="Central de cobro" style="shape=umlActor;verticalLabelPosition=bottom;verticalAlign=top;html=1;outlineConnect=0;rounded=0;" vertex="1" parent="1">
          <mxGeometry x="710" y="600" width="30" height="60" as="geometry" />
        </mxCell>
        <mxCell id="5UNZaeu38mxoltJObdmS-7" value="Empleado" style="shape=umlActor;verticalLabelPosition=bottom;verticalAlign=top;html=1;outlineConnect=0;rounded=0;" vertex="1" parent="1">
          <mxGeometry x="90" y="590" width="30" height="60" as="geometry" />
        </mxCell>
        <mxCell id="5UNZaeu38mxoltJObdmS-10" style="edgeStyle=orthogonalEdgeStyle;rounded=0;orthogonalLoop=1;jettySize=auto;html=1;exitX=1;exitY=0.5;exitDx=0;exitDy=0;entryX=0;entryY=0.3333333333333333;entryDx=0;entryDy=0;entryPerimeter=0;" edge="1" parent="1" source="5UNZaeu38mxoltJObdmS-11" target="5UNZaeu38mxoltJObdmS-6">
          <mxGeometry relative="1" as="geometry">
            <Array as="points">
              <mxPoint x="454" y="650" />
              <mxPoint x="454" y="620" />
            </Array>
            <mxPoint x="470" y="620" as="targetPoint" />
          </mxGeometry>
        </mxCell>
        <mxCell id="5UNZaeu38mxoltJObdmS-27" style="edgeStyle=orthogonalEdgeStyle;rounded=0;orthogonalLoop=1;jettySize=auto;html=1;exitX=0.5;exitY=1;exitDx=0;exitDy=0;entryX=0;entryY=0.5;entryDx=0;entryDy=0;" edge="1" parent="1" source="5UNZaeu38mxoltJObdmS-11" target="5UNZaeu38mxoltJObdmS-26">
          <mxGeometry relative="1" as="geometry" />
        </mxCell>
        <mxCell id="5UNZaeu38mxoltJObdmS-11" value="Recuperar datos" style="ellipse;whiteSpace=wrap;html=1;rounded=0;" vertex="1" parent="1">
          <mxGeometry x="294" y="610" width="120" height="80" as="geometry" />
        </mxCell>
        <mxCell id="5UNZaeu38mxoltJObdmS-14" style="edgeStyle=orthogonalEdgeStyle;rounded=0;orthogonalLoop=1;jettySize=auto;html=1;exitX=0;exitY=0.3333333333333333;exitDx=0;exitDy=0;exitPerimeter=0;" edge="1" parent="1" source="5UNZaeu38mxoltJObdmS-16" target="5UNZaeu38mxoltJObdmS-17">
          <mxGeometry relative="1" as="geometry">
            <Array as="points">
              <mxPoint x="85" y="850" />
            </Array>
          </mxGeometry>
        </mxCell>
        <mxCell id="5UNZaeu38mxoltJObdmS-15" style="edgeStyle=orthogonalEdgeStyle;rounded=0;orthogonalLoop=1;jettySize=auto;html=1;exitX=1;exitY=0.3333333333333333;exitDx=0;exitDy=0;exitPerimeter=0;entryX=0;entryY=0.5;entryDx=0;entryDy=0;" edge="1" parent="1" source="5UNZaeu38mxoltJObdmS-16" target="5UNZaeu38mxoltJObdmS-21">
          <mxGeometry relative="1" as="geometry" />
        </mxCell>
        <mxCell id="5UNZaeu38mxoltJObdmS-29" style="edgeStyle=orthogonalEdgeStyle;rounded=0;orthogonalLoop=1;jettySize=auto;html=1;exitX=1;exitY=0.3333333333333333;exitDx=0;exitDy=0;exitPerimeter=0;entryX=0;entryY=0.5;entryDx=0;entryDy=0;" edge="1" parent="1" source="5UNZaeu38mxoltJObdmS-16" target="5UNZaeu38mxoltJObdmS-24">
          <mxGeometry relative="1" as="geometry">
            <Array as="points">
              <mxPoint x="120" y="870" />
              <mxPoint x="210" y="870" />
              <mxPoint x="210" y="910" />
            </Array>
          </mxGeometry>
        </mxCell>
        <mxCell id="5UNZaeu38mxoltJObdmS-16" value="Gerente" style="shape=umlActor;verticalLabelPosition=bottom;verticalAlign=top;html=1;outlineConnect=0;rounded=0;" vertex="1" parent="1">
          <mxGeometry x="90" y="830" width="30" height="60" as="geometry" />
        </mxCell>
        <mxCell id="5UNZaeu38mxoltJObdmS-17" value="Usuario recuperador&lt;br&gt;de datos&lt;br&gt;" style="shape=umlActor;verticalLabelPosition=bottom;verticalAlign=top;html=1;outlineConnect=0;rounded=0;" vertex="1" parent="1">
          <mxGeometry x="70" y="710" width="30" height="60" as="geometry" />
        </mxCell>
        <mxCell id="5UNZaeu38mxoltJObdmS-18" style="edgeStyle=orthogonalEdgeStyle;rounded=0;orthogonalLoop=1;jettySize=auto;html=1;exitX=0;exitY=0.3333333333333333;exitDx=0;exitDy=0;exitPerimeter=0;entryX=0;entryY=0.3333333333333333;entryDx=0;entryDy=0;entryPerimeter=0;" edge="1" parent="1" source="5UNZaeu38mxoltJObdmS-7" target="5UNZaeu38mxoltJObdmS-17">
          <mxGeometry relative="1" as="geometry" />
        </mxCell>
        <mxCell id="5UNZaeu38mxoltJObdmS-28" style="edgeStyle=orthogonalEdgeStyle;rounded=0;orthogonalLoop=1;jettySize=auto;html=1;exitX=1;exitY=0.5;exitDx=0;exitDy=0;" edge="1" parent="1" source="5UNZaeu38mxoltJObdmS-21" target="5UNZaeu38mxoltJObdmS-6">
          <mxGeometry relative="1" as="geometry" />
        </mxCell>
        <mxCell id="5UNZaeu38mxoltJObdmS-21" value="Registrar pagos" style="ellipse;whiteSpace=wrap;html=1;rounded=0;" vertex="1" parent="1">
          <mxGeometry x="300" y="770" width="120" height="80" as="geometry" />
        </mxCell>
        <mxCell id="5UNZaeu38mxoltJObdmS-24" value="Ver estadísticas" style="ellipse;whiteSpace=wrap;html=1;rounded=0;" vertex="1" parent="1">
          <mxGeometry x="300" y="870" width="120" height="80" as="geometry" />
        </mxCell>
        <mxCell id="5UNZaeu38mxoltJObdmS-26" value="Verificar datos" style="ellipse;whiteSpace=wrap;html=1;rounded=0;" vertex="1" parent="1">
          <mxGeometry x="450" y="690" width="120" height="80" as="geometry" />
        </mxCell>
        <mxCell id="5UNZaeu38mxoltJObdmS-30" style="edgeStyle=orthogonalEdgeStyle;rounded=0;orthogonalLoop=1;jettySize=auto;html=1;exitX=0.5;exitY=1;exitDx=0;exitDy=0;" edge="1" parent="1" source="5UNZaeu38mxoltJObdmS-1" target="5UNZaeu38mxoltJObdmS-1">
          <mxGeometry relative="1" as="geometry" />
        </mxCell>
      </root>
    </mxGraphModel>
  </diagram>
</mxfile>
